<?xml version="1.0" encoding="UTF-8" standalone="no"?>
<svg xmlns="http://www.w3.org/2000/svg" viewBox="0 0 32 42" width="32" height="42"><g transform="translate(-130.66939,-107.49557)"><g transform="matrix(0.153091,0,0,0.15566029,110.65045,90.645502)"><path style="fill:#0dbc37;fill-opacity:0.94117647" d="m 130.765,212.764 c 0,-57.724 34.836,-104.515 104.511,-104.515 69.675,0 104.515,46.791 104.515,104.515 0,57.72 -36.38424,97.95411 -97.12973,146.16614 C 175.17787,319.02533 130.765,270.484 130.765,212.764 Z" /><path transform="translate(130.278,108.14938)" d="m 112.26172,53.445312 c -4.06,0 -7.34961,3.29361 -7.34961,7.34961 l -1.4043,94.636718 -43.855466,-61.626952 c -1.972,-2.978001 -5.993938,-3.794266 -8.960938,-1.822266 -2.978,1.968 -3.787172,5.980984 -1.826172,8.958988 0,0 47.083284,69.73942 50.714844,80.37695 3.120292,9.13993 3.173442,14.17199 3.236332,20.66211 L 101.875,265.4082 c 0,6.013 21.77344,6.013 21.77344,0 l -1.40821,-71.29882 c -0.10522,-7.74371 0.28703,-14.04107 3.48243,-22.88282 3.30183,-9.13627 37.91992,-79.947263 37.91992,-79.947263 1.523,-2.934 0.37922,-6.537547 -2.55078,-8.060547 -2.922,-1.519 -6.53364,-0.373359 -8.05664,2.556641 l -31.79102,57.789059 -1.63476,-82.769528 c 0,-4.06 -3.29166,-7.34961 -7.34766,-7.34961 z" style="fill:#502d16" /></g></g></svg>